<?xml version="1.0" encoding="UTF-8"?>
<svg version="1.1" xmlns="http://www.w3.org/2000/svg" width="472" height="429">
<path d="M0 0 C17.0253779 14.97629725 28.1850464 33.57871455 31.5078125 56.16796875 C31.59528295 58.12615153 31.63837843 60.08674087 31.640625 62.046875 C31.64191406 63.13291016 31.64320313 64.21894531 31.64453125 65.33789062 C31.64066406 66.45744141 31.63679687 67.57699219 31.6328125 68.73046875 C31.63667969 69.85388672 31.64054688 70.97730469 31.64453125 72.13476562 C31.64259766 73.76188477 31.64259766 73.76188477 31.640625 75.421875 C31.63949707 76.40486572 31.63836914 77.38785645 31.63720703 78.40063477 C31.5114908 81.08930175 31.10943454 83.54849326 30.5078125 86.16796875 C31.4771875 85.91402344 32.4465625 85.66007812 33.4453125 85.3984375 C67.93111892 76.49144985 100.40004678 75.79871351 134.5078125 87.16796875 C134.3634375 86.28496094 134.2190625 85.40195313 134.0703125 84.4921875 C130.37541939 60.60367717 134.49788036 37.17181427 148.5078125 17.16796875 C163.3239537 -2.0101021 183.15952179 -14.2384636 206.98046875 -18.4453125 C230.03367774 -20.97274073 251.26541757 -15.9314764 270.69921875 -3.3125 C271.29605469 -2.82394531 271.89289063 -2.33539063 272.5078125 -1.83203125 C272.5078125 -1.17203125 272.5078125 -0.51203125 272.5078125 0.16796875 C273.343125 0.53921875 273.343125 0.53921875 274.1953125 0.91796875 C288.12369497 8.44682414 297.7368989 26.07481766 302.4765625 40.58203125 C309.82261739 66.12626758 307.04864328 89.77094482 294.3828125 113.16796875 C290.26602007 120.005424 285.11923922 125.54855991 279.5078125 131.16796875 C278.77691406 131.91046875 278.04601562 132.65296875 277.29296875 133.41796875 C261.00473475 148.94790508 238.80915147 155.23885106 216.79296875 155.30078125 C214.5078125 155.16796875 214.5078125 155.16796875 212.5078125 154.16796875 C213.00410156 155.00714844 213.50039063 155.84632813 214.01171875 156.7109375 C226.92017107 179.27914569 234.08953841 207.08631816 232.5078125 233.16796875 C232.4461792 234.18866455 232.4461792 234.18866455 232.38330078 235.22998047 C229.6814112 276.05182014 212.43517629 314.59357402 181.51953125 341.8671875 C178.90056765 344.04903978 176.2419879 346.13294322 173.5078125 348.16796875 C172.31478516 349.06708984 172.31478516 349.06708984 171.09765625 349.984375 C138.49903711 373.6780055 98.32202056 383.56762252 58.46484375 377.453125 C17.97237028 370.41909033 -17.23630023 348.51601799 -41.40991211 315.30615234 C-57.14758563 292.73280882 -67.58396623 264.83087495 -68.4921875 237.16796875 C-68.54375 235.88535156 -68.5953125 234.60273438 -68.6484375 233.28125 C-69.37479687 206.69109431 -63.77384067 177.94957865 -49.4921875 155.16796875 C-50.16121094 155.20277344 -50.83023438 155.23757812 -51.51953125 155.2734375 C-74.60721998 155.92423141 -94.80984367 147.70021033 -112.9453125 133.6484375 C-113.45578125 133.15988281 -113.96625 132.67132813 -114.4921875 132.16796875 C-114.4921875 131.50796875 -114.4921875 130.84796875 -114.4921875 130.16796875 C-115.05421875 129.95398438 -115.61625 129.74 -116.1953125 129.51953125 C-128.89624752 122.0458518 -136.19469887 101.82181641 -139.80078125 88.3515625 C-144.84345506 65.13247123 -140.9420289 41.49514395 -128.5625 21.2109375 C-114.37778037 0.362076 -94.37322045 -13.24067226 -69.6171875 -18.14453125 C-45.20021035 -21.54850662 -19.18214948 -16.08564865 0 0 Z " fill="#FFFFFF" transform="translate(151.4921875,38.83203125)"/>
</svg>
